<svg width="458" height="68" viewBox="0 0 458 68" fill="none" xmlns="http://www.w3.org/2000/svg">
<path d="M100 30L69.8795 60L39.759 30L69.8795 0L100 30Z" fill="#0000FF"/>
<path d="M39.759 30L19.8795 49.8L0 30L19.8795 10.2L39.759 30Z" fill="#0000FF"/>
<path d="M128.608 53.208H124V7.384H128.608V27.8H153.376V7.384H157.92V53.208H153.376V32.088H128.608V53.208Z" fill="#0000FF"/>
<path d="M166.885 22.232L178.533 53.848L175.269 56.408L162.213 22.232H166.885ZM163.109 66.712V63.064H166.501C167.397 63.064 168.272 62.9787 169.125 62.808C170.021 62.68 170.832 62.3173 171.557 61.72C172.325 61.1227 172.944 60.12 173.413 58.712L186.661 22.232H191.205L176.997 60.312C176.101 62.744 174.885 64.4933 173.349 65.56C171.856 66.6267 170 67.16 167.781 67.16C166.885 67.16 166.053 67.1173 165.285 67.032C164.517 66.9893 163.792 66.8827 163.109 66.712Z" fill="#0000FF"/>
<path d="M194.45 66.712V22.232H198.29L198.738 28.504C199.847 26.1147 201.426 24.344 203.474 23.192C205.565 21.9973 207.89 21.4 210.45 21.4C213.437 21.4 215.997 22.104 218.13 23.512C220.263 24.92 221.906 26.84 223.058 29.272C224.21 31.704 224.786 34.4773 224.786 37.592C224.786 40.7067 224.21 43.5013 223.058 45.976C221.949 48.4507 220.327 50.4133 218.194 51.864C216.103 53.272 213.522 53.976 210.45 53.976C207.805 53.976 205.479 53.4213 203.474 52.312C201.469 51.16 199.933 49.4747 198.866 47.256V66.712H194.45ZM198.93 37.72C198.93 40.0667 199.357 42.1787 200.21 44.056C201.063 45.8907 202.279 47.3413 203.858 48.408C205.479 49.4747 207.421 50.008 209.682 50.008C211.943 50.008 213.863 49.4747 215.442 48.408C217.021 47.3413 218.215 45.8907 219.026 44.056C219.879 42.1787 220.306 40.0667 220.306 37.72C220.306 35.3307 219.879 33.2187 219.026 31.384C218.215 29.5067 217.021 28.056 215.442 27.032C213.863 25.9653 211.943 25.432 209.682 25.432C207.421 25.432 205.479 25.9653 203.858 27.032C202.279 28.056 201.063 29.5067 200.21 31.384C199.357 33.2187 198.93 35.3307 198.93 37.72Z" fill="#0000FF"/>
<path d="M242.897 53.976C239.91 53.976 237.265 53.2933 234.961 51.928C232.7 50.5627 230.929 48.664 229.649 46.232C228.369 43.8 227.729 40.9627 227.729 37.72C227.729 34.52 228.348 31.704 229.585 29.272C230.865 26.7973 232.614 24.8773 234.833 23.512C237.052 22.104 239.633 21.4 242.577 21.4C245.393 21.4 247.846 22.0187 249.937 23.256C252.07 24.4933 253.713 26.2213 254.865 28.44C256.06 30.616 256.657 33.176 256.657 36.12V38.296H230.161L230.289 35.096H252.241C252.241 32.1093 251.345 29.72 249.553 27.928C247.804 26.0933 245.478 25.176 242.577 25.176C240.444 25.176 238.566 25.6667 236.945 26.648C235.366 27.6293 234.15 29.0373 233.297 30.872C232.444 32.664 232.017 34.7973 232.017 37.272C232.017 41.368 232.956 44.5467 234.833 46.808C236.753 49.0693 239.462 50.2 242.961 50.2C245.478 50.2 247.548 49.6667 249.169 48.6C250.79 47.5333 251.878 45.976 252.433 43.928H256.657C255.846 47.1707 254.268 49.6667 251.921 51.416C249.574 53.1227 246.566 53.976 242.897 53.976Z" fill="#0000FF"/>
<path d="M277.99 21.848V25.816H275.558C272.699 25.816 270.416 26.6907 268.71 28.44C267.046 30.1893 266.214 32.5573 266.214 35.544V53.208H261.798V22.232H265.958L266.342 28.312H265.894C266.32 26.3067 267.366 24.6853 269.03 23.448C270.694 22.168 272.72 21.528 275.11 21.528C275.579 21.528 276.048 21.5493 276.518 21.592C276.987 21.6347 277.478 21.72 277.99 21.848Z" fill="#0000FF"/>
<path d="M282.772 53.208H280.02L287.316 7H290.068L282.772 53.208Z" fill="#0000FF"/>
<path d="M290.844 53.208L295.708 22.488H298.46L293.596 53.208H290.844ZM298.588 13.016C297.948 13.016 297.415 12.8027 296.988 12.376C296.561 11.9493 296.348 11.4373 296.348 10.84C296.348 10.2853 296.476 9.77334 296.732 9.304C297.031 8.83467 297.393 8.45067 297.82 8.152C298.289 7.85334 298.78 7.704 299.292 7.704C299.932 7.704 300.465 7.91734 300.892 8.344C301.319 8.77067 301.532 9.28267 301.532 9.88C301.532 10.4347 301.383 10.9467 301.084 11.416C300.828 11.8853 300.487 12.2693 300.06 12.568C299.633 12.8667 299.143 13.016 298.588 13.016Z" fill="#0000FF"/>
<path d="M304.176 53.208H301.424L306.288 22.488H308.464L308.08 28.632C309.531 26.328 311.216 24.6 313.136 23.448C315.056 22.296 317.253 21.72 319.728 21.72C322.117 21.72 324.101 22.2533 325.68 23.32C327.301 24.3867 328.453 25.88 329.136 27.8C329.861 29.6773 330.011 31.9173 329.584 34.52L326.64 53.208H323.888L326.768 35.096C327.365 31.5547 327.024 28.8667 325.744 27.032C324.464 25.1973 322.352 24.28 319.408 24.28C316.123 24.28 313.328 25.4747 311.024 27.864C308.763 30.2107 307.312 33.3893 306.672 37.4L304.176 53.208Z" fill="#0000FF"/>
<path d="M337.074 53.208H334.322L341.618 7H344.37L339.186 39.704L358.322 22.488H361.971L348.402 34.776L357.234 53.208H354.227L346.354 36.568L338.611 43.544L337.074 53.208Z" fill="#0000FF"/>
<path d="M360.834 39.448C360.834 36.9733 361.239 34.6693 362.05 32.536C362.903 30.36 364.077 28.4827 365.57 26.904C367.063 25.2827 368.791 24.024 370.754 23.128C372.759 22.1893 374.914 21.72 377.218 21.72C380.162 21.72 382.594 22.5093 384.514 24.088C386.477 25.6667 387.671 27.864 388.098 30.68L387.586 30.232L389.378 22.488H391.746L387.01 52.568C386.285 57.176 384.621 60.696 382.018 63.128C379.415 65.6027 376.023 66.84 371.842 66.84C369.325 66.84 367.106 66.3707 365.186 65.432C363.266 64.536 361.751 63.2347 360.642 61.528C359.575 59.864 358.999 57.9227 358.914 55.704H361.73C361.858 58.3067 362.818 60.376 364.61 61.912C366.445 63.4907 368.855 64.28 371.842 64.28C375.255 64.28 378.029 63.256 380.162 61.208C382.295 59.2027 383.661 56.3227 384.258 52.568L385.986 42.008L386.37 42.84C385.005 45.784 383.149 48.0667 380.802 49.688C378.455 51.2667 375.831 52.056 372.93 52.056C370.541 52.056 368.429 51.544 366.594 50.52C364.759 49.4533 363.33 47.9813 362.306 46.104C361.325 44.184 360.834 41.9653 360.834 39.448ZM363.65 39.448C363.65 42.4773 364.482 44.9093 366.146 46.744C367.853 48.5787 370.114 49.496 372.93 49.496C375.49 49.496 377.794 48.8347 379.842 47.512C381.89 46.1467 383.511 44.2907 384.706 41.944C385.901 39.5973 386.498 36.9733 386.498 34.072C386.498 31.0427 385.645 28.6533 383.938 26.904C382.274 25.1547 379.991 24.28 377.09 24.28C374.573 24.28 372.29 24.9627 370.242 26.328C368.237 27.6507 366.637 29.464 365.442 31.768C364.247 34.0293 363.65 36.5893 363.65 39.448Z" fill="#0000FF"/>
<path d="M413.8 22.04L413.416 24.472H411.176C409.384 24.472 407.72 24.8987 406.184 25.752C404.691 26.6053 403.432 27.7787 402.408 29.272C401.384 30.7653 400.723 32.472 400.424 34.392L397.416 53.208H394.664L399.528 22.488H401.896L401.32 28.376H401.192C401.917 26.3707 403.176 24.7707 404.968 23.576C406.76 22.3387 408.765 21.72 410.984 21.72C411.453 21.72 411.923 21.7627 412.392 21.848C412.904 21.8907 413.373 21.9547 413.8 22.04Z" fill="#0000FF"/>
<path d="M413.119 53.208L417.983 22.488H420.735L415.871 53.208H413.119ZM420.863 13.016C420.223 13.016 419.69 12.8027 419.263 12.376C418.836 11.9493 418.623 11.4373 418.623 10.84C418.623 10.2853 418.751 9.77334 419.007 9.304C419.306 8.83467 419.668 8.45067 420.095 8.152C420.564 7.85334 421.055 7.704 421.567 7.704C422.207 7.704 422.74 7.91734 423.167 8.344C423.594 8.77067 423.807 9.28267 423.807 9.88C423.807 10.4347 423.658 10.9467 423.359 11.416C423.103 11.8853 422.762 12.2693 422.335 12.568C421.908 12.8667 421.418 13.016 420.863 13.016Z" fill="#0000FF"/>
<path d="M435.667 53.976C433.278 53.976 431.166 53.4213 429.331 52.312C427.539 51.16 426.131 49.6027 425.107 47.64C424.083 45.6347 423.571 43.3307 423.571 40.728C423.571 37.144 424.296 33.9227 425.747 31.064C427.198 28.1627 429.16 25.88 431.635 24.216C434.11 22.552 436.883 21.72 439.955 21.72C442.728 21.72 445.054 22.4027 446.931 23.768C448.851 25.0907 450.131 26.968 450.771 29.4L454.291 7H457.043L449.747 53.208H447.379L448.083 46.488C446.59 49.0053 444.798 50.8827 442.707 52.12C440.659 53.3573 438.312 53.976 435.667 53.976ZM435.923 51.416C438.526 51.416 440.851 50.6907 442.899 49.24C444.947 47.7467 446.568 45.7413 447.763 43.224C449 40.664 449.619 37.8053 449.619 34.648C449.619 31.32 448.787 28.76 447.123 26.968C445.459 25.176 443.048 24.28 439.891 24.28C437.331 24.28 435.027 25.0053 432.979 26.456C430.974 27.9067 429.374 29.8693 428.179 32.344C426.984 34.8187 426.387 37.6133 426.387 40.728C426.387 43.9707 427.24 46.5733 428.947 48.536C430.696 50.456 433.022 51.416 435.923 51.416Z" fill="#0000FF"/>
</svg>
